<svg width="18" height="18" viewBox="0 0 18 18" fill="none" xmlns="http://www.w3.org/2000/svg">
<path d="M6.45456 11.9091C7.05705 11.9091 7.54547 11.4207 7.54547 10.8182C7.54547 10.2157 7.05705 9.72729 6.45456 9.72729C5.85206 9.72729 5.36365 10.2157 5.36365 10.8182C5.36365 11.4207 5.85206 11.9091 6.45456 11.9091Z" fill="#657786"/>
<path d="M11.5454 11.9091C12.1479 11.9091 12.6363 11.4207 12.6363 10.8182C12.6363 10.2157 12.1479 9.72729 11.5454 9.72729C10.9429 9.72729 10.4545 10.2157 10.4545 10.8182C10.4545 11.4207 10.9429 11.9091 11.5454 11.9091Z" fill="#657786"/>
<path fill-rule="evenodd" clip-rule="evenodd" d="M17 9.72722C17 8.64576 16.2109 7.75413 15.1782 7.58176C14.2895 5.02176 11.8625 3.18176 9 3.18176C6.13745 3.18176 3.71055 5.02176 2.82182 7.58176C1.78909 7.75413 1 8.64576 1 9.72722C1 10.8087 1.78909 11.7003 2.82182 11.8727C3.71055 14.4327 6.13745 16.2727 9 16.2727C11.8625 16.2727 14.2895 14.4327 15.1782 11.8727C16.2109 11.7003 17 10.8087 17 9.72722Z" stroke="#667580" stroke-width="1.5" stroke-linecap="round" stroke-linejoin="round"/>
<path d="M9.00003 5.36364C8.81821 2.75782 10.2124 1.15127 12.6364 1" stroke="#667580" stroke-width="1.5" stroke-linecap="round" stroke-linejoin="round"/>
</svg>
