<svg width="23" height="22" viewBox="0 0 23 22" fill="none" xmlns="http://www.w3.org/2000/svg">
<path d="M1.02451 11.344L2.00939 11.5173L2.01813 11.4675L2.02183 11.4172L1.02451 11.344ZM2.31251 12.268L1.84212 11.3855L1.80341 11.4062L1.76666 11.4301L2.31251 12.268ZM3.95251 11.729L4.93198 11.5274L4.72236 10.509L3.7129 10.7581L3.95251 11.729ZM6.21251 20.271L5.31514 20.7123L5.44703 20.9805L5.70447 21.1323L6.21251 20.271ZM16.5245 20.271L17.0329 21.1322L17.0771 21.1061L17.1184 21.0756L16.5245 20.271ZM19.0565 11.709L19.3812 10.7632L18.2771 10.3841L18.072 11.5334L19.0565 11.709ZM20.4245 12.268L20.9704 11.4301L20.934 11.4064L20.8957 11.386L20.4245 12.268ZM21.8995 11.302L22.8842 11.1278L22.8701 11.0479L22.8433 10.9713L21.8995 11.302ZM11.4603 0.5C11.2524 0.5 11.0827 0.55883 11.0011 0.589858C10.9015 0.627685 10.808 0.674142 10.7275 0.7179C10.5657 0.805857 10.3865 0.921592 10.2029 1.04916C9.83195 1.30685 9.36891 1.66449 8.85549 2.08251C7.82479 2.9217 6.53948 4.04646 5.28274 5.20695C4.02697 6.36655 2.78488 7.57552 1.84481 8.58336C1.37666 9.08526 0.968442 9.55319 0.668301 9.94924C0.519039 10.1462 0.382334 10.3439 0.276557 10.5317C0.188389 10.6883 0.0500868 10.9588 0.0271913 11.2708L2.02183 11.4172C2.01068 11.5691 1.9576 11.6226 2.0193 11.513C2.06339 11.4347 2.1412 11.317 2.26229 11.1572C2.50285 10.8398 2.85866 10.4286 3.30734 9.94755C4.20092 8.98955 5.40365 7.81757 6.63957 6.6763C7.87454 5.53592 9.1278 4.43987 10.1183 3.63346C10.6154 3.22868 11.0336 2.90733 11.3439 2.69173C11.501 2.58265 11.6126 2.51316 11.6827 2.47506C11.7181 2.45579 11.7258 2.454 11.7117 2.45935C11.7038 2.46233 11.6808 2.47078 11.6456 2.47913C11.6131 2.48686 11.5477 2.5 11.4603 2.5V0.5ZM0.0396331 11.1707C-0.0321116 11.5786 -0.0122222 11.994 0.14812 12.375C0.312172 12.7647 0.596901 13.0532 0.93463 13.2273C1.57216 13.556 2.32403 13.454 2.85836 13.1059L1.76666 11.4301C1.77131 11.4271 1.77326 11.4266 1.77241 11.4269C1.77153 11.4272 1.7711 11.4271 1.77235 11.427C1.77354 11.4269 1.78014 11.4265 1.79232 11.4287C1.80465 11.4309 1.82532 11.4364 1.85114 11.4497C1.87766 11.4634 1.90718 11.4841 1.9345 11.5132C1.96225 11.5428 1.98074 11.5736 1.99149 11.5991C2.01349 11.6514 1.98763 11.6409 2.00939 11.5173L0.0396331 11.1707ZM2.7829 13.1505C2.91438 13.0804 3.22906 12.9706 3.59094 12.864C3.75549 12.8155 3.90727 12.7741 4.01811 12.7448C4.07332 12.7302 4.11787 12.7187 4.14815 12.711C4.16328 12.7071 4.17481 12.7042 4.1823 12.7023C4.18604 12.7014 4.18877 12.7007 4.19042 12.7003C4.19125 12.7001 4.19181 12.6999 4.1921 12.6999C4.19224 12.6998 4.19231 12.6998 4.19232 12.6998C4.19232 12.6998 4.1923 12.6998 4.19227 12.6998C4.19225 12.6998 4.19222 12.6998 4.19221 12.6998C4.19216 12.6999 4.19212 12.6999 3.95251 11.729C3.7129 10.7581 3.71285 10.7581 3.71279 10.7582C3.71276 10.7582 3.71269 10.7582 3.71264 10.7582C3.71254 10.7582 3.71242 10.7583 3.71228 10.7583C3.712 10.7584 3.71164 10.7584 3.71122 10.7585C3.71038 10.7588 3.70925 10.759 3.70785 10.7594C3.70504 10.7601 3.70114 10.7611 3.69619 10.7623C3.68629 10.7648 3.67221 10.7683 3.6544 10.7729C3.61881 10.7819 3.56821 10.795 3.50632 10.8114C3.38294 10.844 3.21266 10.8905 3.02583 10.9455C2.68496 11.0459 2.17964 11.2056 1.84212 11.3855L2.7829 13.1505ZM3.95251 11.729C2.97304 11.9306 2.97306 11.9307 2.97307 11.9308C2.97309 11.9308 2.97311 11.9309 2.97314 11.9311C2.97319 11.9313 2.97326 11.9317 2.97335 11.9321C2.97354 11.933 2.97382 11.9344 2.97417 11.9361C2.97489 11.9395 2.97593 11.9446 2.97731 11.9512C2.98006 11.9645 2.98411 11.9841 2.98942 12.0096C3.00003 12.0605 3.01564 12.1351 3.03577 12.2305C3.07603 12.4213 3.13442 12.6954 3.20715 13.0296C3.35253 13.6975 3.55563 14.6075 3.78618 15.5739C4.01638 16.5388 4.27575 17.5676 4.53379 18.4707C4.78532 19.351 5.05525 20.1838 5.31514 20.7123L7.10988 19.8297C6.93827 19.4807 6.70995 18.807 6.45682 17.9212C6.2102 17.0581 5.95852 16.061 5.73159 15.1098C5.50501 14.1601 5.30493 13.2637 5.1614 12.6042C5.08968 12.2747 5.03218 12.0048 4.99267 11.8176C4.97292 11.724 4.95768 11.6511 4.9474 11.6017C4.94226 11.5771 4.93837 11.5583 4.93578 11.5458C4.93448 11.5395 4.93351 11.5349 4.93288 11.5318C4.93256 11.5302 4.93233 11.5291 4.93217 11.5284C4.9321 11.528 4.93204 11.5277 4.93201 11.5276C4.932 11.5275 4.93199 11.5274 4.93198 11.5274C4.93197 11.5274 4.93198 11.5274 3.95251 11.729ZM5.70447 21.1323C6.01111 21.3132 6.4097 21.417 6.75802 21.4872C7.13787 21.5638 7.58691 21.624 8.07042 21.6708C9.0396 21.7646 10.2098 21.8102 11.3689 21.8102C12.528 21.8102 13.6981 21.7646 14.6672 21.6708C15.1506 21.624 15.5996 21.5638 15.9794 21.4872C16.3276 21.417 16.7262 21.3132 17.0329 21.1322L16.0162 19.4098C16.0183 19.4086 15.9044 19.4621 15.584 19.5267C15.2953 19.5849 14.9197 19.637 14.4745 19.6801C13.5864 19.766 12.4832 19.8102 11.3689 19.8102C10.2546 19.8102 9.15135 19.766 8.26307 19.6801C7.81784 19.637 7.44214 19.5849 7.15325 19.5266C6.83282 19.462 6.71865 19.4085 6.72055 19.4097L5.70447 21.1323ZM17.1184 21.0756C17.464 20.8205 17.6991 20.4223 17.8574 20.1102C18.0345 19.7609 18.2001 19.3425 18.3533 18.8999C18.6606 18.0119 18.9497 16.9319 19.1967 15.9032C19.4449 14.8698 19.6557 13.8662 19.8042 13.1226C19.8786 12.7503 19.9375 12.442 19.978 12.2263C19.9983 12.1184 20.0139 12.0336 20.0245 11.9755C20.0298 11.9465 20.0339 11.924 20.0366 11.9088C20.038 11.9011 20.0391 11.8952 20.0398 11.8912C20.0402 11.8892 20.0404 11.8876 20.0406 11.8865C20.0407 11.886 20.0408 11.8855 20.0409 11.8852C20.0409 11.8851 20.0409 11.8849 20.0409 11.8848C20.041 11.8847 20.041 11.8846 19.0565 11.709C18.072 11.5334 18.0721 11.5334 18.0721 11.5334C18.072 11.5334 18.072 11.5334 18.072 11.5335C18.072 11.5336 18.072 11.5339 18.0719 11.5343C18.0717 11.5351 18.0715 11.5363 18.0712 11.538C18.0706 11.5414 18.0697 11.5466 18.0684 11.5535C18.0659 11.5674 18.0621 11.5884 18.0571 11.616C18.047 11.6712 18.0319 11.7529 18.0123 11.8575C17.9731 12.0666 17.9156 12.3672 17.843 12.7309C17.6975 13.4591 17.4922 14.4359 17.252 15.4363C17.0107 16.4413 16.7392 17.4485 16.4632 18.2459C16.3247 18.6461 16.1931 18.97 16.0736 19.2056C15.9353 19.4785 15.8743 19.508 15.9306 19.4664L17.1184 21.0756ZM19.0565 11.709C18.7318 12.6548 18.7317 12.6548 18.7317 12.6548C18.7317 12.6548 18.7317 12.6548 18.7317 12.6548C18.7316 12.6548 18.7316 12.6548 18.7316 12.6548C18.7316 12.6547 18.7317 12.6548 18.7318 12.6548C18.732 12.6549 18.7324 12.655 18.733 12.6552C18.7343 12.6557 18.7364 12.6564 18.7393 12.6574C18.745 12.6594 18.7539 12.6625 18.7656 12.6666C18.789 12.6748 18.8237 12.687 18.8669 12.7025C18.9537 12.7336 19.074 12.7776 19.2076 12.8287C19.4887 12.9363 19.7794 13.0571 19.9533 13.15L20.8957 11.386C20.6016 11.2289 20.2083 11.0702 19.9224 10.9608C19.7725 10.9034 19.6386 10.8545 19.542 10.8199C19.4935 10.8025 19.4542 10.7886 19.4266 10.779C19.4128 10.7741 19.4019 10.7703 19.3942 10.7677C19.3904 10.7663 19.3873 10.7653 19.3852 10.7645C19.3841 10.7642 19.3832 10.7639 19.3826 10.7636C19.3822 10.7635 19.382 10.7634 19.3817 10.7634C19.3816 10.7633 19.3815 10.7633 19.3814 10.7633C19.3814 10.7632 19.3813 10.7632 19.3813 10.7632C19.3813 10.7632 19.3812 10.7632 19.0565 11.709ZM19.8787 13.1059C20.464 13.4872 21.2507 13.5126 21.8659 13.2214C22.1972 13.0645 22.5134 12.7998 22.7145 12.4094C22.9171 12.016 22.9629 11.5725 22.8842 11.1278L20.9148 11.4762C20.9229 11.5221 20.9201 11.5412 20.9204 11.5389C20.9208 11.5355 20.9239 11.518 20.9364 11.4938C20.9487 11.4698 20.9649 11.4496 20.9808 11.4349C20.996 11.4209 21.0073 11.415 21.0102 11.4136C21.0127 11.4124 21.0092 11.4144 20.999 11.4163C20.9889 11.4182 20.9766 11.4191 20.9641 11.4185C20.9515 11.4178 20.944 11.4159 20.9425 11.4154C20.9408 11.4149 20.9514 11.4178 20.9704 11.4301L19.8787 13.1059ZM22.8433 10.9713C22.7687 10.7587 22.6458 10.557 22.5381 10.3974C22.4209 10.2238 22.277 10.0352 22.1169 9.83903C21.7963 9.44598 21.3776 8.98146 20.9013 8.47981C19.9464 7.47434 18.7205 6.27864 17.4901 5.13379C16.2598 3.98895 15.0126 2.88333 14.0134 2.05938C13.5158 1.64905 13.0664 1.29754 12.7049 1.04398C12.526 0.918474 12.3502 0.803885 12.19 0.716502C12.1102 0.672984 12.0169 0.626606 11.9171 0.588832C11.8339 0.557313 11.666 0.5 11.4603 0.5V2.5C11.3748 2.5 11.3103 2.48737 11.2771 2.47955C11.2415 2.4712 11.2178 2.46263 11.2091 2.4593C11.1932 2.45331 11.199 2.45413 11.2323 2.47231C11.2983 2.5083 11.4049 2.57504 11.5564 2.68133C11.8558 2.89135 12.2594 3.20528 12.741 3.60241C13.7001 4.39336 14.9162 5.47068 16.1277 6.59796C17.3392 7.72523 18.5335 8.89085 19.451 9.85703C19.9108 10.3412 20.2913 10.7651 20.5671 11.1032C20.7053 11.2726 20.8088 11.4102 20.8802 11.5161C20.9611 11.6359 20.9678 11.6669 20.9558 11.6327L22.8433 10.9713ZM10.2125 10.188C10.2125 9.49857 10.7715 8.94 11.4605 8.94V6.94C9.66751 6.94 8.21251 8.39343 8.21251 10.188H10.2125ZM11.4605 8.94C12.1502 8.94 12.7085 9.49828 12.7085 10.188H14.7085C14.7085 8.39372 13.2548 6.94 11.4605 6.94V8.94ZM12.7085 10.188C12.7085 10.877 12.1499 11.436 11.4605 11.436V13.436C13.2551 13.436 14.7085 11.981 14.7085 10.188H12.7085ZM11.4605 11.436C10.7718 11.436 10.2125 10.8767 10.2125 10.188H8.21251C8.21251 11.9813 9.66723 13.436 11.4605 13.436V11.436Z" fill="#667580"/>
</svg>
